#N canvas 374 561 450 300 10;
#X obj 193 260 dac~;
#X obj 124 195 osc~ 440;
#X obj 125 152 *~ 50;
#X obj 125 173 +~ 440;
#X obj 125 131 osc~ 0.5;
#X obj 143 32 osc~ 0.37123;
#X obj 141 82 +~ 0.5;
#X obj 141 59 *~ 0.25;
#X obj 274 155 *~ 50;
#X obj 274 134 osc~ 0.5;
#X obj 292 35 osc~ 0.37123;
#X obj 290 85 +~ 0.5;
#X obj 290 62 *~ 0.25;
#X obj 273 198 osc~ 220;
#X obj 274 176 +~ 220;
#X connect 1 0 0 0;
#X connect 2 0 3 0;
#X connect 3 0 1 0;
#X connect 4 0 2 0;
#X connect 5 0 7 0;
#X connect 6 0 4 0;
#X connect 7 0 6 0;
#X connect 8 0 14 0;
#X connect 9 0 8 0;
#X connect 10 0 12 0;
#X connect 11 0 9 0;
#X connect 12 0 11 0;
#X connect 13 0 0 1;
#X connect 14 0 13 0;
