#N canvas 407 329 450 300 10;
#X obj 105 180 dac~;
#X obj 188 35 osc~ 0.1;
#X obj 188 54 +~ 1;
#X obj 187 74 *~ 100;
#X text 246 141 Chuckynabox1;
#X obj 103 144 lop~;
#X obj 180 127 snapshot~;
#X obj 318 30 loadbang;
#X msg 317 50 \; pd dsp 1;
#X obj 103 43 phasor~ 250;
#X obj 103 92 -~ 0.5;
#X floatatom 186 156 5 0 0 0 - - -;
#X obj 268 100 loadbang;
#X obj 274 123 metro 100;
#X obj 188 95 +~ 150;
#X text 81 204 Filtro paso bajos aplicado a un oscilador diente de
sierra a 250Hz. la frecuenia de corte dle filtro está controlada por
un LFO que oscila a 0.1Hz entre 150Hz y 350Hz.;
#X connect 1 0 2 0;
#X connect 2 0 3 0;
#X connect 3 0 14 0;
#X connect 5 0 0 0;
#X connect 5 0 0 1;
#X connect 6 0 5 1;
#X connect 6 0 11 0;
#X connect 7 0 8 0;
#X connect 9 0 10 0;
#X connect 10 0 5 0;
#X connect 12 0 13 0;
#X connect 13 0 6 0;
#X connect 14 0 6 0;
